<svg id="Layer_1" data-name="Layer 1" xmlns="http://www.w3.org/2000/svg" viewBox="0 0 122.88 117.33"><defs><style>.cls-1{fill-rule:evenodd;}</style></defs><title>global-payment</title><path class="cls-1" d="M79.5,107.24a4.55,4.55,0,0,1,.67,2.33c0,4.28-6.63,7.76-14.8,7.76s-14.81-3.48-14.81-7.76a4.52,4.52,0,0,1,.68-2.33c1.88,3.16,7.5,5.45,14.13,5.45s12.25-2.29,14.13-5.45ZM92.27,55.59l-.87-4.87L80.65,47.1l.78,1.21a19.19,19.19,0,0,1,3,6c.67,3.21-.53,5.89-5.86,7.81a4,4,0,0,1,.45.31,4.28,4.28,0,0,1,1.08,1.13,15.15,15.15,0,0,0-3.22,9l-1.68,2.23a35.23,35.23,0,0,0-9.84-1.38,32.77,32.77,0,0,0-14.94,3.41,22.76,22.76,0,0,0-2.16,1.28c-.31-.58-.57-1.07-.76-1.47a5.18,5.18,0,0,1-.59-2c0-3.5-1.2-4.28-2.87-4.28a25.61,25.61,0,0,0-3.31.32,33.3,33.3,0,0,1-4.48.4,4.87,4.87,0,0,1-3.32-1.53,15.89,15.89,0,0,1-2.5-3.27c-.78-1.29-1.37-2.33-1.77-3.11a6.21,6.21,0,0,1-.83-2.46V59c-.06-6-.11-11.6,5.64-15.75,2.38-3.39,4.53-5.59,7.11-7s5.68-2,9.72-2a2.15,2.15,0,0,1,2.15,2.15v3L55,40.63l0-.18a2.13,2.13,0,0,1,2.54-1.65h0a16.24,16.24,0,0,1,2.18.61,9.56,9.56,0,0,1,1.84.89,3.82,3.82,0,0,0,1.34.43,5.39,5.39,0,0,0,2,0,1.41,1.41,0,0,0,.62-.21h0v-.07c.06-.32.1-.65.14-1l-2.55.22a2.14,2.14,0,0,1-2.12-1.21h0c-.84-1.77-2.62-2.68-4.85-3.82C44.89,28.91,34.42,33.38,33.56,31c-.49-1.34.21-2.42,1.15-3.86s2-3.16,2-4.91a2.15,2.15,0,0,1,1.43-2l8.64-3.95c-.93-.17-2.09-.37-3-5a2.13,2.13,0,0,1,1.1-2.32l2.37-1.46c.92-.62,2-1.43,3.31-2.41L50.64,5A53.14,53.14,0,0,0,38,8.58h0a57.76,57.76,0,0,0-9.45,5.11,54.63,54.63,0,0,0-8.12,6.68h0a53.59,53.59,0,0,0-6.69,8.12A57.76,57.76,0,0,0,8.6,38l0,.1A52.32,52.32,0,0,0,5.37,48.34,56.17,56.17,0,0,0,4.3,59.44a57.08,57.08,0,0,0,1.07,11.1l.12.58,9.94,4.75a2.11,2.11,0,0,1,1.21,1.85h0a17.85,17.85,0,0,1-1.43,7.1A17.43,17.43,0,0,0,14,90a2.21,2.21,0,0,1-.11.58,53.85,53.85,0,0,0,6.55,7.91h0a53.51,53.51,0,0,0,8.11,6.69A59.32,59.32,0,0,0,38,110.29a.31.31,0,0,1,.1,0c1,.4,1.94.78,2.92,1.13a14,14,0,0,0,1.71,5.07,57.87,57.87,0,0,1-6.31-2.26l-.11,0a61.84,61.84,0,0,1-10.14-5.5,58.3,58.3,0,0,1-8.77-7.21h0a57.68,57.68,0,0,1-7.22-8.76,63.38,63.38,0,0,1-5.5-10.14h0A56.82,56.82,0,0,1,1.16,71.37a62,62,0,0,1,0-23.87A56.77,56.77,0,0,1,4.6,36.38a.37.37,0,0,1,.05-.11,61.84,61.84,0,0,1,5.5-10.14,57.13,57.13,0,0,1,7.21-8.76h0a57.2,57.2,0,0,1,8.76-7.22,63.38,63.38,0,0,1,10.14-5.5h0A58.5,58.5,0,0,1,59.44,0,60.87,60.87,0,0,1,71.37,1.16,56.56,56.56,0,0,1,82.49,4.6l.12,0a62.85,62.85,0,0,1,10.13,5.5,57.87,57.87,0,0,1,8.77,7.22h0a57.72,57.72,0,0,1,7.21,8.76,61.84,61.84,0,0,1,5.5,10.14h0a57,57,0,0,1,3.49,11.22,60,60,0,0,1,1.07,8.65,39.82,39.82,0,0,0-14.05-2.47,40.76,40.76,0,0,0-12.47,1.91Zm29.78,48.89a5.57,5.57,0,0,1,.83,2.85c0,5.25-8.13,9.51-18.14,9.51s-18.15-4.26-18.15-9.51a5.63,5.63,0,0,1,.83-2.85c2.31,3.87,9.19,6.67,17.32,6.67s15-2.8,17.31-6.67Zm0-11.5a5.57,5.57,0,0,1,.83,2.85c0,5.25-8.13,9.51-18.14,9.51s-18.15-4.26-18.15-9.51A5.63,5.63,0,0,1,87.42,93c2.31,3.87,9.19,6.67,17.32,6.67s15-2.8,17.31-6.67ZM111.29,69l-.21,2.36-8.91-.77a8.12,8.12,0,0,1,1.53,3.2l-2.14-.19a7.13,7.13,0,0,0-1-2.1,4.37,4.37,0,0,0-1.85-1.66L98.91,68,111.29,69Zm-6.55-3.69c8.23,0,14.91,2.62,14.91,5.84S113,77,104.74,77,89.83,74.4,89.83,71.17s6.68-5.84,14.91-5.84Zm0-1.95c10,0,18.14,4.27,18.14,9.52s-8.13,9.51-18.14,9.51S86.59,78.14,86.59,72.9s8.13-9.52,18.15-9.52Zm17.37,18.44a5.43,5.43,0,0,1,.77,2.73c0,5.25-8.13,9.51-18.14,9.51S86.59,89.8,86.59,84.55a5.37,5.37,0,0,1,.77-2.73c2.24,3.92,9.16,6.78,17.38,6.78s15.14-2.86,17.37-6.78Zm-51.4,5.87-.17,1.93L63.28,89a6.61,6.61,0,0,1,1.24,2.62l-1.75-.16A5.45,5.45,0,0,0,62,89.73a3.56,3.56,0,0,0-1.51-1.36l.14-1.56,10.1.88Zm-5.34-3c6.71,0,12.16,2.14,12.16,4.77s-5.45,4.78-12.16,4.78S53.2,92.07,53.2,89.44s5.45-4.77,12.17-4.77Zm0-1.58c8.17,0,14.8,3.48,14.8,7.76s-6.63,7.76-14.8,7.76-14.81-3.48-14.81-7.76,6.63-7.76,14.81-7.76Zm14.18,15a4.52,4.52,0,0,1,.62,2.23c0,4.28-6.63,7.76-14.8,7.76s-14.81-3.48-14.81-7.76a4.4,4.4,0,0,1,.63-2.23c1.82,3.2,7.48,5.54,14.18,5.54s12.35-2.34,14.18-5.54Z"/></svg>